# xmcd
# 
# Track frame offsets:
#     150
#     24605
#     44475
#     61632
#     85815
#     108672
#     126287
#     150962
#     174562
#     193802
#     216050
# 
# Disc length: 3156
# 
# Revision: 1
# Processed by: cddbd v1.5.2PL0 Copyright (c) Steve Scherf et al.
# Submitted via: fre:ac v1.0.17
# 
DISCID=900c520b
DTITLE=European Jazz Trio - Sonata
DYEAR=2004
DGENRE=Jazz
TTITLE0=Sonata (Scarlatti)
TTITLE1=Largo (Bach)
TTITLE2=La Campanella (Liszt)
TTITLE3=The Maiden's Prayer (Badarzewska)
TTITLE4=Fur Elise (Beethoven)
TTITLE5=Jesus.Joy Of Man's Desiring (Bach)
TTITLE6=Raindrop (Chopin)
TTITLE7=Serenade (Schubert)
TTITLE8=The Swan Lake (Tchaikovsky)
TTITLE9=Chanson De L'adieu (Chopin)
TTITLE10=Ballade No.1 (Chopin)
EXTD=YEAR: 2004
EXTT0=
EXTT1=
EXTT2=
EXTT3=
EXTT4=
EXTT5=
EXTT6=
EXTT7=
EXTT8=
EXTT9=
EXTT10=
PLAYORDER=
